<?xml version="1.0" encoding="utf-8"?>
<!-- Generator: Adobe Illustrator 27.2.0, SVG Export Plug-In . SVG Version: 6.00 Build 0)  -->
<svg version="1.1" id="Layer_1" xmlns="http://www.w3.org/2000/svg" xmlns:xlink="http://www.w3.org/1999/xlink" x="0px" y="0px"
	 viewBox="0 0 100 100" style="enable-background:new 0 0 100 100;" xml:space="preserve">
<style type="text/css">
	.st0{fill:#FFFFFF;}
</style>
<g>
	<path class="st0" d="M58.93,71.61c2.39-0.54,4.56-0.9,6.66-1.52c8.08-2.41,12.81-8.41,13.7-16.82c0.63-5.98,0.03-11.54-3.96-16.37
		c-0.31-0.37-0.2-1.22-0.07-1.8c0.72-3.13,0.51-6.18-0.31-9.27c-0.39-1.48-1.24-2.14-2.56-1.65c-3.15,1.16-6.22,2.56-9.35,3.76
		c-0.91,0.35-2.02,0.72-2.91,0.52c-6.68-1.5-13.31-1.48-19.98,0.02c-0.84,0.19-1.9-0.12-2.74-0.47c-2.94-1.2-5.78-2.63-8.75-3.75
		c-1.73-0.65-3.22-0.11-3.34,2.07c-0.15,2.82-0.34,5.66-0.19,8.48c0.06,1.12,0.09,1.92-0.62,2.87c-6.25,8.38-4.4,22.98,3.65,29.13
		c3.83,2.93,8.35,3.97,12.92,4.6c-0.73,1.87-1.41,3.75-2.23,5.57c-0.2,0.45-0.81,0.84-1.31,1.03c-4.73,1.76-8.88,0.28-11.82-3.92
		c-1.05-1.49-2.36-2.89-3.83-3.96c-1-0.72-2.45-0.9-3.74-1.09c-0.53-0.08-1.16,0.45-1.74,0.7c0.31,0.55,0.51,1.2,0.94,1.61
		c0.81,0.78,1.92,1.28,2.59,2.14c1.13,1.46,2.29,3,2.96,4.7c1.77,4.48,5.21,6.15,9.68,6.33c1.91,0.07,3.82,0.01,5.99,0.01
		c0,2.59,0.1,5.44-0.04,8.28c-0.08,1.73-1.58,2.34-3.67,1.62c-5.15-1.77-9.91-4.33-13.98-7.91C6.35,73.77,0.86,57.76,5.93,39.12
		c5-18.4,17.64-29.63,36.38-33.12C68.3,1.16,92.88,19.97,95.66,46.27c2.21,20.95-10.06,40.81-29.57,47.91
		c-3.49,1.27-4.45,0.59-4.45-3.16c0-3.13-0.04-6.26,0.04-9.38C61.78,78.04,61.39,74.6,58.93,71.61z"/>
</g>
</svg>
