<?xml version="1.0" encoding="utf-8"?>
<!-- Generator: Adobe Illustrator 27.2.0, SVG Export Plug-In . SVG Version: 6.00 Build 0)  -->
<svg version="1.1" id="Layer_1" xmlns="http://www.w3.org/2000/svg" xmlns:xlink="http://www.w3.org/1999/xlink" x="0px" y="0px"
	 viewBox="0 0 100 100" style="enable-background:new 0 0 100 100;" xml:space="preserve">
<style type="text/css">
	.st0{display:none;}
	.st1{display:inline;fill:#1F2D53;}
	.st2{fill:#1F2D53;}
</style>
<g class="st0">
	<path class="st1" d="M58.93,71.61c2.39-0.54,4.56-0.9,6.66-1.52c8.08-2.41,12.81-8.41,13.7-16.82c0.63-5.98,0.03-11.54-3.96-16.37
		c-0.31-0.37-0.2-1.22-0.07-1.8c0.72-3.13,0.51-6.18-0.31-9.27c-0.39-1.48-1.24-2.14-2.56-1.65c-3.15,1.16-6.22,2.56-9.35,3.76
		c-0.91,0.35-2.02,0.72-2.91,0.52c-6.68-1.5-13.31-1.48-19.98,0.02c-0.84,0.19-1.9-0.12-2.74-0.47c-2.94-1.2-5.78-2.63-8.75-3.75
		c-1.73-0.65-3.22-0.11-3.34,2.07c-0.15,2.82-0.34,5.66-0.19,8.48c0.06,1.12,0.09,1.92-0.62,2.87c-6.25,8.38-4.4,22.98,3.65,29.13
		c3.83,2.93,8.35,3.97,12.92,4.6c-0.73,1.87-1.41,3.75-2.23,5.57c-0.2,0.45-0.81,0.84-1.31,1.03c-4.73,1.76-8.88,0.28-11.82-3.92
		c-1.05-1.49-2.36-2.89-3.83-3.96c-1-0.72-2.45-0.9-3.74-1.09c-0.53-0.08-1.16,0.45-1.74,0.7c0.31,0.55,0.51,1.2,0.94,1.61
		c0.81,0.78,1.92,1.28,2.59,2.14c1.13,1.46,2.29,3,2.96,4.7c1.77,4.48,5.21,6.15,9.68,6.33c1.91,0.07,3.82,0.01,5.99,0.01
		c0,2.59,0.1,5.44-0.04,8.28c-0.08,1.73-1.58,2.34-3.67,1.62c-5.15-1.77-9.91-4.33-13.98-7.91C6.35,73.77,0.86,57.76,5.93,39.12
		c5-18.4,17.64-29.63,36.38-33.12C68.3,1.16,92.88,19.97,95.66,46.27c2.21,20.95-10.06,40.81-29.57,47.91
		c-3.49,1.27-4.45,0.59-4.45-3.16c0-3.13-0.04-6.26,0.04-9.38C61.78,78.04,61.39,74.6,58.93,71.61z"/>
</g>
<g>
	<path class="st2" d="M46.54,4.18c2.31,0,4.62,0,6.92,0c0.45,0.11,0.9,0.29,1.36,0.33C72.9,6.25,88.53,19.08,93.76,36.67
		c0.95,3.21,1.38,6.58,2.06,9.87c0,2.31,0,4.62,0,6.92c-0.12,0.52-0.28,1.03-0.35,1.55C93.04,72.98,83.44,85.57,66.75,92.5
		c-4.17,1.73-8.85,2.25-13.29,3.32c-2.31,0-4.62,0-6.92,0c-0.39-0.11-0.77-0.27-1.16-0.32C26.51,93.45,11.39,80.92,6.07,62.75
		c-0.88-3.02-1.27-6.19-1.89-9.28c0-2.31,0-4.62,0-6.92C4.3,46.03,4.46,45.52,4.53,45C7.1,26.35,17.22,13.61,34.75,6.92
		C38.49,5.5,42.6,5.07,46.54,4.18z M53.87,72.09c0-0.75,0-1.41,0-2.07c0-5.02-0.02-10.04,0.01-15.06c0.02-2.22,0.4-4.39,2.26-5.86
		c1.84-1.46,4-1.71,6.15-0.8c2.2,0.94,2.95,2.97,3,5.15c0.11,5.49,0.08,10.99,0.1,16.49c0,0.72,0,1.44,0,2.11c3.54,0,6.76,0,10.04,0
		c0-7.61,0.2-15.08-0.07-22.52c-0.17-4.71-2.39-8.55-7.15-10.12c-4.77-1.58-9.25-0.93-12.95,2.79c-0.39,0.39-0.6,0.96-0.9,1.44
		c-0.18-0.14-0.37-0.28-0.55-0.43c0-1.13,0-2.26,0-3.42c-3.28,0-6.41,0-9.54,0c0,10.85,0,21.54,0,32.3
		C47.48,72.09,50.57,72.09,53.87,72.09z M27.88,39.69c0,10.93,0,21.66,0,32.35c3.37,0,6.58,0,9.81,0c0-10.87,0-21.59,0-32.35
		C34.35,39.69,31.18,39.69,27.88,39.69z M32.6,23.36c-3.17,0.05-5.93,2.86-5.92,6.03c0.01,3.27,2.9,6.14,6.11,6.07
		c3.18-0.07,5.91-2.87,5.92-6.06C38.72,26.14,35.86,23.31,32.6,23.36z"/>
</g>
</svg>
