<?xml version="1.0" encoding="utf-8"?>
<!-- Generator: Adobe Illustrator 27.2.0, SVG Export Plug-In . SVG Version: 6.00 Build 0)  -->
<svg version="1.1" id="Layer_1" xmlns="http://www.w3.org/2000/svg" xmlns:xlink="http://www.w3.org/1999/xlink" x="0px" y="0px"
	 viewBox="0 0 100 100" style="enable-background:new 0 0 100 100;" xml:space="preserve">
<style type="text/css">
	.st0{fill:#FFFFFF;}
</style>
<g>
	<polygon class="st0" points="76.02,63.25 84.16,63.25 84.16,95.82 10.88,95.82 10.88,63.25 19.02,63.25 19.02,87.68 76.02,87.68 	
		"/>
	<path class="st0" d="M27.9,60.83l39.99,8.4l1.68-7.99l-39.99-8.41L27.9,60.83z M33.19,41.68l37.04,17.25l3.45-7.41L36.64,34.28
		L33.19,41.68z M43.44,23.51l31.4,26.15l5.23-6.28l-31.4-26.15L43.44,23.51z M63.71,4.18l-6.56,4.88l24.39,32.79l6.56-4.88
		L63.71,4.18z M27.17,79.54h40.71v-8.14H27.17V79.54z"/>
</g>
</svg>
